<svg width="60" height="59" viewBox="0 0 60 59" fill="none" xmlns="http://www.w3.org/2000/svg">
<circle cx="30" cy="29.5" r="29.5" fill="#141313"/>
<path d="M38.2542 23.3906C38.0056 22.5265 37.6564 21.763 37.2066 21.1001C36.7568 20.4254 36.2064 19.8572 35.5553 19.3956C34.9161 18.9221 34.1822 18.5611 33.3536 18.3125C32.5368 18.0639 31.6313 17.9396 30.637 17.9396C28.7786 17.9396 27.145 18.4013 25.7364 19.3246C24.3396 20.2479 23.2506 21.5914 22.4694 23.3551C21.6881 25.107 21.2975 27.2495 21.2975 29.7827C21.2975 32.3158 21.6822 34.4702 22.4516 36.2457C23.221 38.0213 24.31 39.3767 25.7187 40.3118C27.1273 41.2351 28.7904 41.6967 30.708 41.6967C32.4481 41.6967 33.9336 41.389 35.1647 40.7734C36.4076 40.1461 37.3546 39.2642 38.0056 38.1278C38.6685 36.9915 38.9999 35.648 38.9999 34.0973L40.5624 34.3281H31.1874V28.5398H46.404V33.1207C46.404 36.3168 45.7293 39.063 44.3799 41.3594C43.0305 43.6439 41.172 45.4077 38.8046 46.6506C36.4372 47.8816 33.7265 48.4972 30.6725 48.4972C27.2634 48.4972 24.2686 47.7455 21.6881 46.2422C19.1076 44.727 17.0953 42.5786 15.6512 39.7969C14.2189 37.0033 13.5028 33.6889 13.5028 29.8537C13.5028 26.9062 13.9289 24.2784 14.7812 21.9702C15.6453 19.6501 16.8527 17.6851 18.4033 16.0753C19.954 14.4654 21.7591 13.2403 23.8188 12.3999C25.8785 11.5594 28.1098 11.1392 30.5127 11.1392C32.5724 11.1392 34.49 11.4411 36.2655 12.0447C38.0411 12.6366 39.6154 13.477 40.9885 14.5661C42.3735 15.6551 43.5039 16.9512 44.3799 18.4545C45.2558 19.946 45.8181 21.5914 46.0667 23.3906H38.2542Z" fill="url(#paint0_linear_30_14)"/>
<defs>
<linearGradient id="paint0_linear_30_14" x1="30" y1="0" x2="30" y2="59" gradientUnits="userSpaceOnUse">
<stop offset="0.375" stop-color="#855CFF" stop-opacity="0.792157"/>
<stop offset="0.807692" stop-color="#C4C4C4"/>
</linearGradient>
</defs>
</svg>
